{
    "asset" : {
        "generator" : "Khronos glTF Blender I/O v3.2.40",
        "version" : "2.0"
    },
    "scene" : 0,
    "scenes" : [
        {
            "name" : "Scene",
            "nodes" : [
                0
            ]
        }
    ],
    "nodes" : [
        {
            "mesh" : 0,
            "name" : "Boid"
        }
    ],
    "meshes" : [
        {
            "name" : "Boid",
            "primitives" : [
                {
                    "attributes" : {
                        "POSITION" : 0,
                        "NORMAL" : 1,
                        "TEXCOORD_0" : 2
                    },
                    "indices" : 3
                }
            ]
        }
    ],
    "accessors" : [
        {
            "bufferView" : 0,
            "componentType" : 5126,
            "count" : 30,
            "max" : [
                0.4330126941204071,
                0.5,
                0.2500000298023224
            ],
            "min" : [
                -0.4330127239227295,
                -0.5,
                -0.5
            ],
            "type" : "VEC3"
        },
        {
            "bufferView" : 1,
            "componentType" : 5126,
            "count" : 30,
            "type" : "VEC3"
        },
        {
            "bufferView" : 2,
            "componentType" : 5126,
            "count" : 30,
            "type" : "VEC2"
        },
        {
            "bufferView" : 3,
            "componentType" : 5123,
            "count" : 30,
            "type" : "SCALAR"
        }
    ],
    "bufferViews" : [
        {
            "buffer" : 0,
            "byteLength" : 360,
            "byteOffset" : 0
        },
        {
            "buffer" : 0,
            "byteLength" : 360,
            "byteOffset" : 360
        },
        {
            "buffer" : 0,
            "byteLength" : 240,
            "byteOffset" : 720
        },
        {
            "buffer" : 0,
            "byteLength" : 60,
            "byteOffset" : 960
        }
    ],
    "buffers" : [
        {
            "byteLength" : 1020,
            "uri" : "data:application/octet-stream;base64,"
        }
    ]
}
